# xmcd CD database file
#
# Track frame offsets:
#	150
#	19815
#	39473
#	54445
#	70200
#	90018
#	106385
#	120473
#	140208
#	155730
#	180708
#	204880
#
# Disc length: 2915 seconds
#
# Revision: 2
# Processed by: cddbd v1.5.2PL0 Copyright (c) Steve Scherf et al.
# Submitted via: CDex 1.51
#
DISCID=9c0b610c
DTITLE=Junior Wells - It's My Life, Baby!
DYEAR=1966
DGENRE=Blues
TTITLE0=It's My Life, Baby
TTITLE1=It's So Hard To Be Lonely
TTITLE2=Country Girl
TTITLE3=You Lied To Me
TTITLE4=Stormy Monday Blues
TTITLE5=Shake It Baby
TTITLE6=Checking On My Baby
TTITLE7=Early In The Morning
TTITLE8=(I Got A) Stomach Ache
TTITLE9=Look How Baby
TTITLE10=Slow, Slow
TTITLE11=Everything Is Going To Be Alright
EXTD=YEAR: 1966
EXTT0=
EXTT1=
EXTT2=
EXTT3=
EXTT4=
EXTT5=
EXTT6=
EXTT7=
EXTT8=
EXTT9=
EXTT10=
EXTT11=
PLAYORDER=
